<svg xmlns="http://www.w3.org/2000/svg" width="714.883" height="158.992"><linearGradient id="a" gradientUnits="userSpaceOnUse" x1="416.227" y1="490.832" x2="416.227" y2="-229.601"><stop offset="0" stop-color="#15b4e9"/><stop offset=".374" stop-color="#008fcf"/><stop offset="1" stop-color="#18519f"/></linearGradient><path fill="url(#a)" d="M483.704 123.2c-1.146-1.979-.455-9.719-.736-14.396-.28-4.675-2.422-14.165-2.284-18.714.142-4.549 2.136-17.81 1.009-22.002-.596-2.219-2.906-4.211-4.948-5.6a15.242 15.242 0 00-.907-.979c-6.07-5.965-13.666-5.674-21.905-4.035-8.236 1.638-21.134 5.932-31.673 4.963-10.535-.969-16.1-4.591-23.801-4.178-7.699.412-11.93 1.722-14.559.833-2.629-.888-6.643-.066-6.844-1.3-.201-1.23-1.137-2.962-2.619-2.239-1.482.722-3.811 1.929-3.484.457.328-1.472 3.175-1.321 3.824-3.774.652-2.453.883-5.155-.185-3.444s-3.825 3.773-5.192 3.267c-1.367-.506-2.32-.023-4.953-.296-2.637-.272-4.742-.417-5.589.065-.847.483-2.532-.026-3.892-1.27-1.364-1.243-4.297-3.855-3.468-1.758.827 2.1 3.017 5.197 4.07 5.576 1.052.379 2.411 1.869 1.773 2.354-.636.485-.435 1.839-1.276 1.464-.838-.379-3.979-3.73-5.562-3.379-1.584.354-3.187 2.796-2.142 4.283 1.043 1.484 2.287 4.203 3.658 4.341 1.369.136 3.061-.708 3.371.28.309.987.814 3.944-.043 5.779-.858 1.836-.99 5.4-3.004 6.611-2.011 1.21-1.602 2.811-.877 4.54.727 1.729 3.047 1.384 3.148 1.999.102.617-.229 2.212 2.938 2.245 3.164.032 5.71-2.032 7.178-1.034 1.469 1 4.188 3.855 5.973 5.35 1.778 1.494 2.607 3.594 3.014 5.688.405 2.094 4.951 14.562 10.732 17.202 5.779 2.642 11.291-.868 12.118.983.833 1.854 1.195 9.483.964 12.186-.229 2.704-1.936 4.898-2.808 8.824-.872 3.928-2.312 9.986-3.167 11.7-.857 1.711-5.374 3.755-3.495 4.835 0 0 .782 1.331 2.89 1.475 2.109.146 5.026-2.178 4.727-4.35-.189-1.324 1.41-5.643 2.166-7.971.755-2.327 3.119-7.959 3.666-10.784.55-2.823 1.198-4.782 1.396-3.429.202 1.355-.286 10.205-.833 12.658-.546 2.453-.772 4.91-1.312 6.135-.535 1.225-4.468 5.366-3.207 6.238 1.258.875 4.322-.077 6.223-.428 1.9-.35 3.287-2.548 3.189-3.658-.096-1.105.756-2.081 1.189-3.676.432-1.594-1.07-11.939-.84-14.642.232-2.703-1.01-14.768 1.137-15.36 2.147-.594 3.316-1.688 8.061-1.517 4.742.173 10.002 2.071 16.848 3.37 6.843 1.3 11.611-1.604 12.984-1.834 1.374-.232 2.848-.217 3.263.771.412.989-1.517 5.519-.03 4.058 1.487-1.461 1.611-3.918 2.346-3.296.733.622-.35 4.177.707 3.942s1.186-3.309 1.817-3.303c.632.008.191 2.585 1.248 2.475 1.054-.114 1.29-3.432 1.603-3.058.314.37-.023 3.194.819 3.327.843.132 2.081 3.711 2.073 4.818-.008 1.106-.596 8.97-1.256 12.775-.662 3.806-1.641 7.854-2.914 8.823-1.271.971-3.505 3.407-1.398 3.552 2.109.145 4.842 1.402 5.383-.56.541-1.961 1.268-.231 1.482-.845.217-.613 1.744-7.483 2.514-11.41.767-3.929 3.121-8.576 3.76-9.431.641-.855 1.49-2.076 1.908-1.089.412.99 2.146 8.877 2.008 13.056-.136 4.182.595 6.401-.05 7.38-.646.975-5.101 4.496-3.204 4.763 1.896.264 4.309 2.012 5.799.427 1.486-1.582.767-3.927 1.613-4.41.848-.482 2.219-.592 1.504-3.551-.672-2.775-.182-11.924.26-17.102-.168 2.621.97 8.753.97 8.753l1.163.013s.693-9.463.673-6.881c-.019 2.582.161 6.888.161 6.888l1.592-1.337s.02-2.705-.071-4.797c-.088-2.092-.774-8.861-.774-8.861s.496 3.818 1.119 5.176c.623 1.359 1.014 5.545 1.014 5.545l.844.008c-.001.005.557-4.292-.587-6.273zm-7.784-22.837c.625 4.028 1.235 9.029 1.072 12.13-1.025-2.859-1.312-7.733-1.072-12.13z"/><linearGradient id="b" gradientUnits="userSpaceOnUse" x1="367.705" y1="490.819" x2="367.705" y2="-229.592"><stop offset="0" stop-color="#15b4e9"/><stop offset=".374" stop-color="#008fcf"/><stop offset="1" stop-color="#18519f"/></linearGradient><path fill="url(#b)" d="M370.905 83.794l-2.127 12.93s.215.41.355 1.287c.141.875-.037.974.375 1.51.41.533-.395.628-1.371.647-.975.019-1.467-.634-1.232-.775s.512-1.464.703-2.058c.194-.593.545-.775.545-.775l-3.648-16.486.498.491s3.438 15.943 3.521 15.212c.086-.732 1.189-10.704 1.189-10.704l1.192-1.279z"/><linearGradient id="c" gradientUnits="userSpaceOnUse" x1="630.16" y1="490.832" x2="630.16" y2="-229.602"><stop offset="0" stop-color="#15b4e9"/><stop offset=".374" stop-color="#008fcf"/><stop offset="1" stop-color="#18519f"/></linearGradient><path fill="url(#c)" d="M575.668 33.159c-4.344 2.741-11.601 7.638-14.407 9.6-2.806 1.966-6.548 6.768-5.053 13.529 1.497 6.764 3.181 25.104 2.06 28.701-1.123 3.593-3.182 20.395-3.182 20.395s.748 4.365 1.309 2.183 2.434-7.637 2.434-7.637l-1.873 11.345s2.061 2.4 2.434 0c.374-2.399 2.432-14.291 2.808-19.256.375-4.964-1.872-20.894-1.685-22.638.188-1.747.936-6.11 1.685-.873.748 5.235 3.368 23.348 2.246 27.056-1.124 3.711 4.116 13.045 3.181 16.778-.937 3.733-1.871 10.28-.937 13.335.937 3.055 2.806 13.965 2.247 15.711-.563 1.745-.75 5.891-.75 6.547 0 .652 1.871 1.745 4.679 2.181 2.806.437 4.488-2.181 2.806-4.146-1.682-1.962-2.994-10.91-2.618-15.711.374-4.801.937-11.564 2.243-10.911 1.311.655-.151 5.456 1.047 5.239 1.199-.221 1.387-5.239 2.51-4.148 1.123 1.092 2.433-.436 2.244 1.529-.188 1.963 1.124 5.891 1.873 8.291.748 2.4 2.432 7.855 2.432 10.037s.748 7.639 1.312 8.073c.56.437 9.167 3.493 8.606.874-.561-2.62-4.305-10.038-5.613-14.838-1.311-4.801-.75-11.783-.189-13.312.563-1.526 2.621-1.963 3.37-.872.749 1.09 4.49 5.672 3.93 2.836-.563-2.836-1.946-6.547.058-6.982 2-.436-.994-6.98 3.309-4.364 4.305 2.62 11.415 2.183 15.532.655 4.116-1.527 11.413-5.455 11.787-3.491s-.935 13.747 0 16.364c.937 2.619 2.994 9.311 2.246 10.547-.749 1.236-1.872 10.4-1.686 12.148.188 1.745 2.808 3.842 5.052 2.356 2.248-1.485 2.809-3.668 1.685-7.376-1.121-3.71-.373-9.165.563-15.274.934-6.11-.563-15.93 0-18.546.561-2.619 2.057-4.801 3.368-2.619 1.31 2.182 4.491 7.418 7.297 8.073 2.806.654 5.803 1.962 5.803 3.491 0 1.527.746 12.244 0 13.867-.75 1.624-2.621 11.662-1.874 13.845.75 2.183 2.246 4.147 4.117 4.147 1.873 0 4.677 0 3.929-3.929-.748-3.928-1.997-15.711.124-18.767 2.121-3.054 1.936-12.219 1.936-15.71s.56-8.728 1.871-6.982c1.309 1.744 4.488 9.82 3.74 15.274-.747 5.454.376 12.001 1.685 17.021 1.312 5.019 5.053 11.348 6.362 12.438 1.31 1.091 10.291 3.709 13.473 3.709 3.184 0 5.8 0 4.492-8.729-1.309-8.728-1.686-13.745-1.125-15.928.563-2.182 4.117-5.237 3.557-8.073-.56-2.836-1.873-8.729-1.309-10.69.561-1.965 4.677 2.399 7.297.218 2.619-2.183 10.104-4.801 0-8.293-10.105-3.491-9.17.654-11.978-.654-2.806-1.311-7.482-11.127-12.351-27.059-4.863-15.928-2.243-33.628-13.282-40.584-11.04-6.956-11.229-6.547-26.945-5.019-15.718 1.528-28.442 5.891-36.301 4.582-7.862-1.31-16.092-4.29-23.581.436z"/><linearGradient id="d" gradientUnits="userSpaceOnUse" x1="101.106" y1="490.832" x2="101.105" y2="-229.601"><stop offset="0" stop-color="#15b4e9"/><stop offset=".374" stop-color="#008fcf"/><stop offset="1" stop-color="#18519f"/></linearGradient><path fill="url(#d)" d="M186.908 56.286c-1.884-3.077-4.669-9.584-4.774-12.423-.104-2.839-1.667-5.72-.17-7.569 1.497-1.849 2.458-1.255 4.448-3.47 1.992-2.214 1.61-7.329 1.61-7.329s-2.779 1.058-4.133 3.855c-1.355 2.8-4.268 2.529-5.067 1.94-.798-.589-1.241-2.683.729-3.952 1.972-1.268 3.48-3.684 4.696-7.621 1.214-3.938 1.095-6.021.427-5.096-.666.929-4.54 8.006-6.657 8.516-2.12.509-6.67.949-7.652 1.488-.985.541-5.396 2.121-3.89-.106 1.504-2.229 4.121-3.289 4.819-5.729.698-2.439.938-6.287-.065-4.766-1.004 1.522-3.846 5.604-6.303 6.859-2.458 1.255-2.997 3.888-2.869 5.593.127 1.706-1.938-.432-2.563-1.583-.627-1.152-3.033-2.354-3.033-2.354s-1.208 3.56-.467 6.984c.739 3.423 2.646 5.367 1.517 5.147-1.131-.222-10.712.459-13.96.747-3.249.287-11.269-4.095-19.533-4.324-8.266-.229-35.951-2.32-43.453-.258-7.502 2.061-17.831-.306-22.844-1.012-5.012-.707-12.846-6.22-22.777-4.225-6.688 1.342-10.963 3.436-13.131 6.506-1.379 1.672-2.626 4.142-3.377 7.785-2.52 12.222-.939 16.236-1.955 25.285s.104 17.777-1.293 22.656c-1.395 4.876-3.51 13.139-2.643 18.268.868 5.131 1.676-2.6 1.729-5.246.054-2.646.181 7.002-.339 8.688-.522 1.689-.306 6.99-.306 6.99s1.559-2.983 1.907-5.053c.13-.783.601-2.663 1.111-4.855.264 4.902 1.802 7.567.501 12.275-1.401 5.065-2.933 7.86-1.002 9.048 1.928 1.188 1.423 2.12.571 4.176-.854 2.057-1.691 3.356-.094 4.536 1.596 1.178 8.24 3.443 7.622.967-.619-2.475-2.436-8.766-2.174-13.674.263-4.91 2.036-13.748 2.847-17.129.814-3.382 5.145-8.936 6.213-5.69s2.23 9.895 2.176 12.541c-.053 2.646-.277 13.607 1.17 14.214 1.446.607.26 3.223-.092 4.535-.352 1.314.594 2.664 2.535 2.907 1.94.243 6.799.567 5.227-1.935-1.568-2.502-1.65-6.475-2.369-11.033-.718-4.559-1.747-9.693-1.156-14.782.59-5.089.104-13.03 1.215-11.872 1.111 1.158 1.853 4.582 2.524 3.466.671-1.115 1.194-2.978 2.175-3.335.98-.358 1.225 3.619 2.373 2.895s1.541-3.928 3.185-5.018c1.644-1.088 4.989 1.842 4.38-.066-.61-1.908-1.223-3.627-.568-3.988.656-.358.084-4.157 3.616-2.356 3.53 1.8 9.615 5.561 17.388 6.154 7.771.595 19.047-3.632 23.549-1.806s11.685-.432 11.287 3.15c-.398 3.581-1.492 25.486-3.508 28.834-2.014 3.348-2.921 8.051-2.121 8.639.799.591-1.033 2.997-.07 3.402.965.404 2.896 2.16 4.827 2.404 1.931.242 3.413-.852 2.026-4.484-1.385-3.63.02-6.428.84-12.078.819-5.65 2.633-7.113 2.719-3.328.082 3.783-.317 15.496-.368 17.953-.049 2.457 1.563 2.881 1.22 3.817-.344.935-.2 1.886 2.871 2.348 3.072.462 8.231 1.93 5.728-2.489-2.507-4.418-2.475-5.93-3.008-11.617-.532-5.688.875-19.074 1.593-22.459.719-3.382 1.754-6.461 4.844-6.902 3.092-.441 17.14-13.478 20.539-21.137 3.398-7.658 6.309-15.141 10.09-17.684 3.781-2.542 5.525-.604 6.934 1.894 1.408 2.498 4.605 4.856 7.722 3.05 3.116-1.805 5.919 3.947 10.141 3.686 4.221-.261 6.872-3.023 7.082-5.287.205-2.263-1.055-3.999-2.939-7.078zM25.544 72.991c-.397 3.582-3.544 14.84-4.903 17.829-.65 1.429-1.61 3.545-2.432 5.983-.39-2.848.035-7.753 1.481-15.088 1.447-7.333-2.635-13.876-.058-28.932.568-3.318.91-6.009 1.165-8.206.511 1.854 1.277 3.899 2.261 7.166 1.885 6.254 2.884 17.666 2.486 21.248z"/><linearGradient id="e" gradientUnits="userSpaceOnUse" x1="281.147" y1="490.834" x2="281.147" y2="-229.603"><stop offset="0" stop-color="#15b4e9"/><stop offset=".374" stop-color="#008fcf"/><stop offset="1" stop-color="#18519f"/></linearGradient><path fill="url(#e)" d="M320.033 142.673c.614-.358-.86-13.031 0-16.84.859-3.811 1.548-8.422 1.548-13.033 0-4.609.859-13.232 2.233-20.049 1.377-6.817 0-14.637 1.033-18.646 1.031-4.01.306-15.637-2.599-18.045-2.903-2.405-5.138-9.623-10.297-12.029-5.158-2.406-9.113 1.003-13.926 0-4.814-1.002-11.521-1.402-14.27-2.004-2.752-.602-3.611.201-7.222 0s-6.704-2.006-3.956-2.207c2.752-.2 6.191-3.408 7.91-6.415s-1.547-4.21-4.814-4.411c-3.267-.199-5.502 1.806-6.36 0-.86-1.802 3.61-3.407 6.188-6.816 2.579-3.408 4.986-14.636 3.096-11.427-1.892 3.207-3.783 9.622-8.254 11.228-4.469 1.604-6.016 1.604-8.596 1.402-2.58-.2-6.361-1.004-9.285 1.203-2.922 2.207-6.704-5.613-7.736-8.82-1.031-3.209-1.547-11.029-2.75-7.82-1.205 3.208 1.375 14.434 2.75 16.24 1.374 1.805 2.751 6.816 1.374 6.215-1.374-.602-7.907.803-8.938 3.207-1.032 2.406 3.094 7.62 5.845 7.82 2.75.199 4.298-1.404 5.502 1.604 1.203 3.009 1.203 9.824 2.235 12.832 1.031 3.007-.173 6.615-1.204 13.232-1.031 6.616-.172 11.105 1.031 13.474 1.204 2.365 1.548 7.979 2.407 14.396.858 6.414 5.502 12.431 5.502 15.438 0 3.008 1.204 12.03 1.892 14.836.688 2.807 1.203 8.022 1.203 11.229 0 3.209-.86 9.623 1.204 10.625 2.062 1.002 4.642-.4 4.983-3.207.346-2.807-1.03-9.424-1.375-13.233-.343-3.809 0-9.423.689-12.431.686-3.006-1.892-10.025-1.375-11.629.515-1.604 2.924-.801 5.156-1.402 2.235-.602 5.503-6.016 5.503-3.609s-1.892 16.441-1.548 18.646c.344 2.207 2.923 7.419 2.923 9.624s.86 11.629 1.72 14.035c.858 2.406 2.924 2.004 4.471 1.402 1.547-.601 2.406-6.615 1.547-8.62s-4.814-10.226-3.439-14.837c1.376-4.611 2.58-10.226 2.58-13.434 0-3.207-.173-8.419 2.234-7.418 2.408 1.003 13.066-4.409 13.239-.4.171 4.01 1.03 15.238 2.233 17.443 1.205 2.204 1.721 6.816 2.408 9.822.688 3.009 1.031 9.625 1.031 12.432s1.547 3.209 3.268 2.006c1.719-1.203.515-6.617 1.031-10.227.516-3.607.173-13.433-.344-15.839-.517-2.405-.86-2.806.515-5.612 1.376-2.809-1.375-7.219-.688-9.225.688-2.004 4.642-9.222 4.642-7.617 0 1.604-.688 13.232.172 16.24.859 3.006.859 12.832 1.377 14.436.516 1.602-.859 14.034.343 16.238 1.207 2.202 1.55 1.401 3.958-.003z"/></svg>