<svg xmlns="http://www.w3.org/2000/svg" viewBox="0 0 180.38 213.29"><defs><style>.cls-1{fill:#fff}</style></defs><g id="Слой_2" data-name="Слой 2"><g id="Слой_1-2" data-name="Слой 1"><path class="cls-1" d="M98.19.25c2.32-.56 4.73-.06 7 .36 1.65.42 3.85 1.53 3.61 3.54 0 .92-1.18.71-1.78.64-1.53 0-1.68-2.07-3.1-2.31a11.52 11.52 0 00-4-.3c-1.12.2-1.51 1.44-1.65 2.41s-.27 2.47.78 3.11a10.75 10.75 0 004.27.86c1.1.1 1.76-1 2.64-1.41.84 0 2-.11 2.45.78a2.53 2.53 0 01-1.41 2.15c-2.07 1-4.45.51-6.64.19-1.95-.3-4.16-1-5.08-2.91-1.13-2.59-.11-6.43 2.91-7.11zM68.06 2.29a5.32 5.32 0 012.83-.73c.56.26.53.95.68 1.46.4 2.13.8 4.26 1.22 6.39 2.5-.44 5-1 7.5-1.4 1-.36 1 1 1.3 1.6a38.07 38.07 0 01-5.8 1.32 46.25 46.25 0 01-6 1c-.56-3.23-1.32-6.41-1.73-9.64zm47.17 1.28c.11-.64.8-.6 1.27-.39 1.87.59 3.69 1.32 5.54 2a20.59 20.59 0 014.67 2 22 22 0 01-.74 1.35c-.57.2-1.13-.16-1.67-.29-2.11-.77-4.21-1.53-6.32-2.28-.23.63-.45 1.25-.67 1.88l5.4 1.92c.52.23 1.19.36 1.46.92-.11.56-.36 1.67-1.17 1.33-2.16-.63-4.24-1.51-6.38-2.23l-.7 1.89c2.65 1.08 5.46 1.75 8 3.07a13.69 13.69 0 01-.73 1.49c-1.39 0-2.63-.76-3.93-1.15a70.41 70.41 0 01-7.13-2.74c.99-3 2.01-5.9 3.1-8.77zm-58 2.07a31 31 0 013.41-1.35c.64.06.73.78 1 1.24 1.07 2.6 2.2 5.17 3.26 7.78a8.42 8.42 0 01-2.77 1.24c-.78-.31-.85-1.37-1.26-2-1.89.82-3.79 1.6-5.67 2.42a16.34 16.34 0 010 2.32 5 5 0 01-2.94 1.36 36.42 36.42 0 01-.59-5.22c-.07-1.5-.56-3.22.42-4.54 1.27-1.71 3.3-2.46 5.14-3.25zM55.3 9c-.86 1.07-.3 2.53-.3 3.77l5.09-2.16c-.47-1.12-.94-2.24-1.43-3.35-1.13.56-2.44.85-3.36 1.74zm71.84 9.18c1.66-2.83 3.28-5.72 5.21-8.37a7.73 7.73 0 012.3 1.14c1.54 1 3.13 1.92 4.68 2.91a5.36 5.36 0 012.59 3.14 2.53 2.53 0 01-1.34 2.86 5.34 5.34 0 01-2.93-.2 18.38 18.38 0 01.86 5.51 9 9 0 01-3-1.91c-.69-1.43-.23-3.21-1.11-4.58a11.64 11.64 0 00-2.56-1.84c-.71 1-1.1 2.26-2.14 2.92a8.59 8.59 0 01-2.56-1.58zm5.79-3.06a37.41 37.41 0 004.15 2.42c.49.17 1.25.32 1.56-.25.49-.63-.17-1.34-.65-1.74a44.32 44.32 0 00-3.82-2.45c-.41.67-.83 1.34-1.24 2.02zM42 13.83c1.23-.39 2.84-.3 3.58.92.22 1.07-1.06 1.59-1.84 2-.76-.05-1.49-.26-2.25-.29a8.89 8.89 0 00-2.71 1.65A3.58 3.58 0 0037.27 20a4.44 4.44 0 001.32 2.9 2.15 2.15 0 002.45.89 12.4 12.4 0 003.41-2.23c.84-.7.6-1.92.95-2.84.61-.6 1.46-1.47 2.37-1a2.81 2.81 0 01.08 3.06c-1 2-3 3.09-4.75 4.32s-4.13 2-6.05.81c-1.75-1.17-3.12-3.33-2.65-5.49a7.89 7.89 0 013.27-4.11A13.58 13.58 0 0142 13.83zm104.32 7.33a1.41 1.41 0 011.17-1.38 6.13 6.13 0 011.41 1.09q3.27 3.14 6.61 6.23a5.53 5.53 0 011.06 1.25c0 .65-.63 1.07-1.17 1.3a26.08 26.08 0 01-3.44-3c-1.91 1.86-3.5 4.07-5.61 5.69a5.81 5.81 0 01-2.19-2.07 4.77 4.77 0 011.09-1.47c1.43-1.49 2.84-3 4.24-4.5a30.93 30.93 0 01-3.17-3.14zM25.79 26.84a5.67 5.67 0 012-2.06c.56-.05.89.49 1.28.8 1.51 1.52 3 3 4.54 4.53a5.07 5.07 0 011.27 1.64A7.94 7.94 0 0132.73 34c-1.86-1.64-3.52-3.48-5.31-5.19a7.46 7.46 0 01-1.63-1.97zm-9.16 10.7c1.33-1.91 2.74-4.15 5.16-4.74.87-.32 2.2.54 1.42 1.47-.44 1.19-1.7 1.46-2.76 1.83a11.42 11.42 0 00-2.79 3.9c-.5 1.27.68 2.29 1.59 2.93s2.26 1.29 3.19.38a14.26 14.26 0 002.56-3.5c.38-.66 0-1.41-.18-2.08A21.79 21.79 0 0123 39.91c-.61 0-1-.57-1.48-.89a46.25 46.25 0 012.65-3.86c.3-.34.55-.85 1.07-.87a4 4 0 012.56 3.46c0 2.37-1.63 4.24-2.91 6.06-1.21 1.67-3.09 3.28-5.3 2.9a6.14 6.14 0 01-4.34-3.42c-.77-2.02.26-4.1 1.38-5.75zm143.42-4.2l.27-.16a4.56 4.56 0 012 2.32c-.55 1.07-1.76 1.6-2.63 2.38-1.7 1.19-3.18 2.73-5 3.71a4.08 4.08 0 01-1.92-2.27c.08-.6.72-.86 1.11-1.24 2.06-1.54 4.03-3.26 6.17-4.74zM158 46.06c2.73-1.72 5.61-3.18 8.44-4.73a44.24 44.24 0 013.12 5.27c.84 1.61 1.87 3.12 2.55 4.8-.18.62-.89.82-1.32 1.22-1.79-2.26-2.88-5-4.37-7.44l-2.12 1.19c1 2.06 2.44 4 3.19 6.13-.39.57-1.49 1.26-1.91.37-1.12-1.78-2-3.68-3.09-5.5-1 .56-2 1.12-3.08 1.64-.57-.89-1.5-1.8-1.41-2.95zM30 51a25.78 25.78 0 012.68-8.86 26.5 26.5 0 00.59 9.35 23.22 23.22 0 006.3 10.41A45 45 0 0054 71.23a35.3 35.3 0 019.58 5.91A36.68 36.68 0 0173.17 91a51.53 51.53 0 013.3 14.23c-2-4.85-4-9.88-7.3-14a48.86 48.86 0 00-13.25-11.72c-3.73-2.24-7.84-3.83-11.4-6.35a38.68 38.68 0 01-12.06-16 26.55 26.55 0 003.17 7.88 30.62 30.62 0 0010.21 11.33c3.91 2.52 8.08 4.61 11.81 7.41A59 59 0 0169.3 95.54a36.36 36.36 0 015.25 10.19 22.6 22.6 0 011.4 8 66.56 66.56 0 0012.31-20.87c2.83-7.68 3.83-15.85 5.68-23.79 1.34-5.77 2.75-11.76 6.28-16.64a30.45 30.45 0 016.37-7.62 9.73 9.73 0 019.56-2.13 30.63 30.63 0 006 .76 120.27 120.27 0 0115.94 2c-3.43 0-6.85-.08-10.28-.08-4.06.1-8.08.67-12.1 1.17a15.37 15.37 0 00-9 4.54 31.78 31.78 0 00-7.41 13.68 213.83 213.83 0 00-4.57 20.93 75 75 0 01-13 29.51 36.28 36.28 0 0111.4-4.19c3.19-.55 6.41.24 9.5 1a77.74 77.74 0 0112.28 4.39 39.53 39.53 0 0014.44 3.87 26.05 26.05 0 0010.4-1.69c-1.35.16-2.67.47-4 .64a30.73 30.73 0 01-13.91-1.55 96 96 0 01-10.12-4.48 40.22 40.22 0 00-6.89-2.94c-5.15-1.51-10.72-2.41-16-.93 4.27-3 9.19-5.44 14.5-5.63a20.59 20.59 0 0110.8 2.91c4.86 2.65 9.66 5.52 15 7.27a25.25 25.25 0 009.73 1.51c4.21-.27 8.16-1.86 12-3.45a36.45 36.45 0 01-8 8.71 43.44 43.44 0 01-14.3 7.53 30.31 30.31 0 01-13.58.86 74.46 74.46 0 01-23.51-9.12 18 18 0 00-9.64-1.9 5.32 5.32 0 00-3.17 1.17c-2.74 2.8-5.29 5.8-8.27 8.35-9.13 8-18.71 15.49-28 23.29a45 45 0 003.75-13.06c0-.7.6-1 1.11-1.32A136 136 0 0072 117.83a4.21 4.21 0 001.67-3 13.56 13.56 0 00-2.57-6 17.73 17.73 0 00-7.54-5.28c-7.44-3-14.79-6.64-20.6-12.25-3.26-3.11-5.55-7-7.7-11a52.42 52.42 0 01-3.84-10.57C30.12 63.62 29.28 57.28 30 51zm-18.25-1.73A6.11 6.11 0 0116.84 51c1.43 1.47 1.29 3.73.75 5.56a13 13 0 01-3.1 5.59c-2.79 2.78-8.55.33-8.36-3.66a13 13 0 011.81-5.89 6.16 6.16 0 013.81-3.33zM11 52.63c-1.61.8-2.32 2.72-2.49 4.4 0 1.85 1.92 2.93 3.54 3.1 1.46.16 2.54-1.11 3.05-2.34s1-3-.15-4.06a4.11 4.11 0 00-3.95-1.1zm155.87 7.22c2.49-.81 4.88-1.93 7.43-2.57a4.08 4.08 0 011 3c-2.94 1.33-6.05 2.27-9.08 3.39a6.41 6.41 0 01-1.08-2.9c.32-.58 1.14-.64 1.73-.92zM11 68c.08-1 1.44-.82 1.93-.25.12 1.49-.48 2.92-.68 4.38-.55 2.35-.73 4.81-1.62 7.08-2.71-.51-5.4-1.08-8.11-1.58A3.6 3.6 0 011.05 77a4.6 4.6 0 01.77-3c2.59.31 5.13 1 7.7 1.45.48-2.45.95-5 1.48-7.45zm160.42-.54c1.66-.59 3.74-.76 5.18.43a8 8 0 012.34 4.78c.39 2 .89 4.15 0 6.1a2.31 2.31 0 01-2.34 1.55 3.45 3.45 0 01-.63-2.53c.41-.88 1.41-1.58 1.25-2.66a11.09 11.09 0 00-1-3.9c-.57-1.07-2-1-3-.79s-2.57.71-2.6 2.08a12.81 12.81 0 00.64 4.06c.34 1.28 2.28 1.3 2.37 2.72.1.58.32 1.35-.25 1.78-2 .56-3.37-1.44-3.91-3.06a21.94 21.94 0 01-1-6.27 4.45 4.45 0 012.95-4.29zM3.05 84C5 83.31 7.48 83.38 9 85s1.61 3.69 1.67 5.65-.16 4.23-1.52 5.83c-1.53 1.66-4.18 1.79-6.17 1C.43 96.23 0 93.09 0 90.61S.46 85 3.05 84zm1.19 3.11c-2.26.41-2.57 3.16-2.14 5 .39 3.1 5.63 3.27 6.38.34a6.12 6.12 0 00-.31-4.09c-.75-1.36-2.55-1.58-3.93-1.27zm166.27.81a6.89 6.89 0 01.13-3.19c2.43.84 4.87 1.72 7.28 2.65a3.93 3.93 0 012.25 3.07 37.83 37.83 0 01.07 7c-.05.48 0 1.42-.69 1.36-3 0-6.07-.09-9.08-.32l-.39-.29a6.71 6.71 0 01.21-2.89 14.27 14.27 0 012.27-.11q.09-3.08.21-6.15a6.45 6.45 0 01-2.26-1.13zm4.28 1.84c-.07 1.83-.12 3.68-.19 5.52 1.22 0 2.44.09 3.67.12-.08-1.45.48-3.21-.61-4.4a12.21 12.21 0 00-2.87-1.24zM7.87 102a2.58 2.58 0 012.7 1c1.5 1.67 1.79 4 2.27 6.09s.37 4.52-1.42 5.88-4.75 1.79-6.57.15c-1.56-1.45-2-3.63-2.51-5.61a8 8 0 010-5.07 2.37 2.37 0 012.08-1.48c.76.52.81 1.57.9 2.41a12.06 12.06 0 00-1.17 2.29 11.85 11.85 0 00.89 3.87 2 2 0 002 1.33c1.3-.11 2.91-.36 3.64-1.58.4-1.59-.18-3.25-.64-4.77-.4-1.32-2.42-1.24-2.56-2.7-.05-.62-.43-1.61.39-1.81zm168.37 7.07a30.17 30.17 0 011.32-4.66c.51.18 1.05.34 1.55.56a4.83 4.83 0 01-.2 1.92q-1.12 4.42-2.19 8.87a4.42 4.42 0 01-.63 1.56 15.37 15.37 0 01-1.66-.21 29.37 29.37 0 011-4.74c-2.57-.65-5.16-1.26-7.73-1.93.17-1.07 0-2.4.93-3.17 2.57.44 5.07 1.23 7.61 1.8zM13.88 119.64c-.58-1 1.21-1.92 1.73-1 .84 1.47 1.46 3.06 2.21 4.57a44 44 0 012.47 5.58c-2.33 1.2-4.73 2.26-7.08 3.42a4.7 4.7 0 01-2 .65 32.66 32.66 0 01-2.17-4.25c-.85-1.88-1.84-3.69-2.61-5.6-.38-.8.58-1.26 1.23-1.29.56.15.72.79 1 1.23q1.47 3.12 3 6.23l1.79-.85c-.92-2-2-4-2.84-6.07-.43-1 .82-1.16 1.41-1.47 1.28 2.12 2.19 4.44 3.3 6.65l1.83-.87c-1.08-2.32-2.27-4.57-3.27-6.93zM164 120.7c.33-.59.52-1.36 1.18-1.68 3 1.21 5.88 2.74 8.81 4.12-1.08 3.06-2.72 5.88-4 8.85-.38.62-.53 1.55-1.33 1.78-.5-.2-1.54-.52-1.16-1.26 1-2.43 2.25-4.75 3.33-7.14l-1.79-.86c-.84 1.73-1.65 3.47-2.46 5.21-.27.47-.46 1.07-1 1.32-.55-.15-1.58-.35-1.32-1.15.82-2.16 2-4.16 2.9-6.28l-1.84-.84c-1.29 2.54-2.29 5.25-3.83 7.67-.55-.49-1.88-.72-1.26-1.68 1.18-2.76 2.55-5.36 3.77-8.06zM40.94 158.53a2.34 2.34 0 012.38-3 9.08 9.08 0 014 1.94 4.29 4.29 0 012.23 3.3c0 .63-.52 1-.88 1.45a9.84 9.84 0 01-1.27-1 14.84 14.84 0 00-.6-1.66 10.65 10.65 0 00-2.46-1.69c-.44-.3-1.27-.12-1 .54 1.17 1.8 3.17 3 4 5a2.38 2.38 0 01-2.55 3.1c-1.88-.37-3.41-1.63-4.91-2.73-1.14-.89-2.1-2.86-.75-4a3.49 3.49 0 011.4.73c.33.76.35 1.75 1.14 2.23a10 10 0 002.75 1.63c.94 0 .51-1.09.12-1.48-1.13-1.46-2.86-2.56-3.6-4.36zm93.55-1.63c1.14-.77 2.49-1.6 3.93-1.28a3 3 0 012 3.66c-.67 1.89-2.57 3-3.31 4.83 1.74-.89 3.23-2.18 4.94-3.1.79-.39 1 .81 1.4 1.25a75.51 75.51 0 01-7.2 4.59 3.59 3.59 0 01-1.28-3.38c.5-1.74 2.07-2.8 3-4.28.44-.58-.17-1.13-.61-1.44-1.23.17-2.63 1-2.75 2.32 0 .9-.87 1.32-1.5 1.81-.39-.42-.93-.82-.91-1.46-.08-1.54 1.1-2.72 2.29-3.52zm-5.36 3.34c.44-.18.91-.56 1.41-.34a14.69 14.69 0 01.72 1.29c-1.59 1-3.29 1.75-4.93 2.61.22.46.46.92.69 1.38 1.36-.64 2.67-1.54 4.21-1.68 1.8-.24 3.08 1.75 2.92 3.38-.2 1.3-1.45 2.06-2.51 2.65-1.28.66-2.67 1.46-4.16 1.17a1.66 1.66 0 01-1.51-1.55 6.11 6.11 0 011.38-.91c.68.17 1.42.63 2.11.25s1.88-.74 2.24-1.66a1.76 1.76 0 00-.82-1.22c-1.9.42-3.46 1.7-5.3 2.32a37.79 37.79 0 01-2.2-4.47c.17-.45.67-.6 1.05-.84 1.57-.78 3.14-1.62 4.7-2.38zm-77.37 1.14a7.49 7.49 0 015.84 1.75 3.92 3.92 0 011.53 4.12c-.44 1.75-1.44 3.66-3.28 4.26s-3.8-.33-5.37-1.31a4.18 4.18 0 01-2.19-4.14c.36-1.94 1.45-4.06 3.47-4.68zm.75 2.23a4.56 4.56 0 00-1.77 3.6c.19 1.5 1.8 2.28 3.15 2.42s2-1.14 2.49-2.16a2.64 2.64 0 00-.16-3c-.92-.88-2.49-1.6-3.71-.86zm8.61 1.45a2.46 2.46 0 012.31.63c-.39 2.08-1.42 4-1.75 6.08-.07.92.91 1.36 1.65 1.58s1.89.57 2.4-.29c1-1.83 1.22-4 2.11-5.83.76-.33 1.58.27 2.35.4a50.05 50.05 0 01-1.56 5.24 3.91 3.91 0 01-1.77 2.42c-1.36.71-2.92.25-4.28-.2a4.63 4.63 0 01-3.21-2.45c-.49-1.23 0-2.54.41-3.73a39.82 39.82 0 011.34-3.85zm57.05.07c1.69-.63 3.93-.53 5.06 1.06 1.33 1.82 2.11 4.76.29 6.52a7.34 7.34 0 01-5.71 1.85c-2.41-.5-3.5-3.26-3.5-5.48s2.04-3.41 3.86-3.95zm.37 1.88a2.22 2.22 0 00-1.71 2.09 4 4 0 001.68 3.28c1.44.62 3.64-.41 3.54-2.14s-1.46-4.13-3.51-3.24zm-14.12 2.06a11.38 11.38 0 013.71-.58 16.15 16.15 0 01.68 3.59c.22 1.79.62 3.57.7 5.37a3.06 3.06 0 01-2.36.29c-.56-2.1-.64-4.3-1-6.42-.55 2.12-.87 4.3-1.43 6.43-.22.93-1.44.77-2.17.77-1.4-1.84-2.18-4.07-3.47-6 .17 2.12.75 4.21.78 6.34a10.74 10.74 0 01-2.28.52 74.37 74.37 0 01-1.32-9.13 11.2 11.2 0 013.68-.58c1.32 1.69 2 3.75 3.15 5.58.47-2.04.65-4.18 1.33-6.18zm-26.24.24a8.15 8.15 0 015.91 1.31c1.68 1.49 1.47 4.11.74 6s-2.74 2.53-4.53 2.38c-2.11-.05-4.74-.74-5.49-3-.76-2.55.24-6.34 3.37-6.69zm.73 1.85a2.75 2.75 0 00-1.72 2.5 3 3 0 00.86 3 3.77 3.77 0 003 .47 2.7 2.7 0 001.71-2.36c.15-1.06.15-2.41-.82-3.11a3.88 3.88 0 00-3.03-.5zm7.7-.96c3-.07 5.91-.2 8.86-.1v1.74c-2.13.14-4.27.13-6.39.15 0 .62 0 1.23.07 1.85 1.84.08 3.74-.33 5.53.13 0 .53.06 1.07.07 1.61-1.86.11-3.72.1-5.58.14v1.85c2.1 0 4.2-.1 6.3 0v1.81a83.14 83.14 0 01-8.79 0c-.12-3.07-.11-6.13-.07-9.18zM35 204c.8-.06 1.59-.1 2.39-.12.21 2.07 0 4.15.15 6.22a1.46 1.46 0 001.62 1.29c.87 0 2.14.15 2.55-.84.42-2.07 0-4.21.23-6.3.44-.69 1.46-.29 2.14-.32.52.73.22 1.71.31 2.55a20.14 20.14 0 01-.24 4.53 3.39 3.39 0 01-3 2.21 8.54 8.54 0 01-4.43-.47 3.19 3.19 0 01-1.72-2.88c-.09-1.96 0-3.87 0-5.87zm11.62 2.4a3.36 3.36 0 013.11-2.4 31.67 31.67 0 014.87 0l.35.24c.15 3 0 5.93.07 8.89a10.08 10.08 0 01-2.26.11 5.58 5.58 0 01-.3-2.23H48a8.32 8.32 0 01-.76 2.11 8.78 8.78 0 01-2.29.16 66.48 66.48 0 011.67-6.88zm2.68.06a13.12 13.12 0 00-.83 2.6h4v-3.33c-1.02.13-2.47-.31-3.17.73zm13.43-2.4a7.24 7.24 0 015.16.46 4.28 4.28 0 011.8 3.83 4.62 4.62 0 01-1.59 4.08 7 7 0 01-5.18.64 3.85 3.85 0 01-3-3.55c-.36-2.15.42-4.91 2.81-5.46zm1.06 1.8a2.5 2.5 0 00-1.43 2.51 2.83 2.83 0 001.21 2.76 2.56 2.56 0 003.25-.78 4.43 4.43 0 00.11-3.39 2.45 2.45 0 00-3.14-1.1zm7.44-.86c1.25-1.35 3.28-1.14 4.94-1.11 1.29 0 2.86.61 3.16 2a3.12 3.12 0 01-.57 2.36 3 3 0 01.54 3.68c-1.17 1.54-3.33 1.38-5 1.36-1.5 0-3.42-.56-3.76-2.23a3.1 3.1 0 01.93-2.83 2.57 2.57 0 01-.24-3.23zm2.39 1a.91.91 0 00.58 1.66c1 .16 3.18.2 2.64-1.43a3.93 3.93 0 00-3.22-.33zm-.4 3.73a1.28 1.28 0 00-.17 1.39 5.9 5.9 0 003.48.26.92.92 0 000-1.8 6.91 6.91 0 00-3.31.05zm13.66-5.66c1.93-.43 4.28-.49 5.83.93 1.32 1.37 1.35 3.5 1 5.26a3.81 3.81 0 01-3.27 2.9c-1.82.25-4 .2-5.35-1.28a6.08 6.08 0 01-.83-5 3.71 3.71 0 012.62-2.81zm1.07 1.8a2.51 2.51 0 00-1.39 2.5 2.8 2.8 0 001.18 2.75 2.56 2.56 0 003.25-.74 4.37 4.37 0 00.12-3.44 2.45 2.45 0 00-3.11-1.07zm9.49-1.81c2.07-.46 4.76-.48 6.18 1.36a6.31 6.31 0 01.27 5.81c-.87 1.7-3 2.14-4.74 2s-3.67-.8-4.21-2.58c-.79-2.33-.32-5.86 2.5-6.59zm1.07 1.8c-1.53.62-1.58 2.63-1.22 4 .48 1.93 3.63 2.07 4.38.28a4.39 4.39 0 00-.11-3.43 2.56 2.56 0 00-3.05-.85zm6.74 1c-.39-1.59 1.21-2.71 2.59-2.93a9.27 9.27 0 014.16.22c2 .61 2.38 3.73.7 4.91s-3.68 1.07-5.28 2.17c2.07.19 4.14.05 6.22.14-.08.57.15 1.26-.22 1.76a63.25 63.25 0 01-8.26 0c.09-1.2-.17-2.66.85-3.55 1.45-1.38 3.75-1.07 5.24-2.33.34-1.44-1.28-1.68-2.31-1.49-.91 0-1.33.89-2 1.31a2.3 2.3 0 01-1.69-.21zM123 204a18.86 18.86 0 013.1-.06 49.77 49.77 0 01.12 5.73l1.3.19v1.62l-1.18.17a5.23 5.23 0 01-.42 1.56 4.83 4.83 0 01-2-.09c-.12-.51-.2-1-.29-1.53h-5.76a8.51 8.51 0 01.12-2c.93-1.35 2.15-2.47 3.18-3.74A8.58 8.58 0 01123 204zm-2.47 5.72h3.2V206q-1.59 1.86-3.19 3.68zm6.38-5.72a64.09 64.09 0 018.09 0c.6 1-.06 2.14-.54 3.05-1.06 1.87-2 3.81-3.1 5.65-.53 1-1.83.42-2.72.46 1.2-2.5 2.62-4.9 3.91-7.35a50.93 50.93 0 01-5.39-.11c-.11-.6-.16-1.14-.25-1.7zm10.73.05a13.82 13.82 0 014.21-.17 2.82 2.82 0 012.63 1.84c.22.5-.12 1.23-.73 1.13-1 .21-1.55-.68-2.3-1.07a6.84 6.84 0 00-2.59.05c-.61.24-.59 1-.83 1.56 1.72.1 3.51-.21 5.16.39s1.81 2.85 1.08 4.21c-1 1.38-2.86 1.26-4.34 1.29s-3.35-.12-4-1.65a16.54 16.54 0 01-.2-5.16 2.52 2.52 0 011.91-2.42zm.43 5.27c.08.56.18 1.12.31 1.67a4.49 4.49 0 003.07.3c1-.1 1-1.86 0-1.92a23.42 23.42 0 00-3.38-.05zm-81.68 1.89a8.19 8.19 0 012.52 0c0 .57 0 1.14-.11 1.71-.46.57-1.29.34-1.92.31-.72-.4-.33-1.38-.49-2.02zm24.74-.1a2.35 2.35 0 011.87.23 5.44 5.44 0 010 1.56c-.51.54-1.32.38-2 .32-.64-.38-.66-1.83.13-2.11zm33.43.14c.82-.09 1.75-.46 2.47.1a6.6 6.6 0 010 1.54c-.51.58-1.35.38-2 .32-.57-.47-.32-1.33-.47-1.96z"/><path class="cls-1" d="M36.16 56.55c5.4-10.93 14-20.45 24.84-26.18-1 .84-2.1 1.55-3.14 2.33a57.2 57.2 0 00-19.33 26.83c-.8-.99-1.53-1.99-2.37-2.98zm98.68-6.26a43.73 43.73 0 013.74 6.51 65.49 65.49 0 01-.49 57.61 23.74 23.74 0 01-6.71-.88 61.29 61.29 0 005.65-10 60.44 60.44 0 00-.92-50.61c-.44-.86-.89-1.73-1.27-2.63zM31.46 69.76a52.42 52.42 0 003.84 10.57 58.76 58.76 0 0013.89 37.26 56.51 56.51 0 0010.3 9.41 70.56 70.56 0 01-8.69 5.74C39.42 123 32.2 108.81 30.21 94.05a63.69 63.69 0 011.25-24.29zM114.89 129a30.31 30.31 0 0013.58-.86 55.63 55.63 0 01-40.63 18.44 54.84 54.84 0 01-28.08-7.41c2.91-2.36 5.66-4.9 8.54-7.28a49.48 49.48 0 0029 3.77 51 51 0 0017.59-6.66z"/></g></g></svg>